<svg height="512pt" viewBox="-20 0 512 512.00026" width="512pt" xmlns="http://www.w3.org/2000/svg"><path d="m292.242188 410.070312s3.875 2.738282 9.421874 8.207032c24.898438 24.535156 38.773438 58.851562 38.773438 93.722656h-207.964844c0-34.871094 13.871094-69.1875 38.769532-93.722656 5.550781-5.46875 9.425781-8.207032 9.425781-8.207032zm0 0" fill="#53be8d"/><path d="m25.972656 262.148438c-38.085937-26.203126-31.019531-84.410157 12.234375-100.742188-21.546875-40.902344 11.761719-89.160156 57.648438-83.519531-.070313-46.230469 51.847656-73.480469 89.859375-47.160157 21.421875-40.96875 80.058594-40.96875 101.480468 0 38.007813-26.320312 89.929688.929688 89.859376 47.160157 45.886718-5.640625 79.195312 42.613281 57.648437 83.519531 43.25 16.328125 50.320313 74.535156 12.234375 100.742188zm0 0" fill="#ac84c4"/><path d="m472.910156 257.976562c0 21.382813-17.335937 38.71875-38.714844 38.71875-21.382812 0-38.71875-17.335937-38.71875-38.71875 0-21.382812 17.335938-38.714843 38.71875-38.714843 21.378907 0 38.714844 17.332031 38.714844 38.714843zm0 0" fill="#d6d6d6"/><path d="m426.089844 210.648438c-12.859375-30.894532-64.769532-128.148438-189.636719-65.863282-124.863281-62.289062-176.773437 34.96875-189.632813 65.863282-2.308593 5.539062-3.542968 11.480468-3.546874 17.484374v.085938c0 104.878906 86.492187 189.902344 193.179687 189.902344 106.691406 0 193.183594-85.023438 193.183594-189.902344v-.085938c-.003907-6.003906-1.238281-11.945312-3.546875-17.484374zm0 0" fill="#e8e8e8"/><path d="m74.179688 228.21875v-.085938c0-4.140624.589843-40.410156 1.710937-64.347656-15.375 17.308594-24.59375 36.105469-29.070313 46.863282-1.210937 2.910156-2.121093 5.933593-2.71875 9.015624-1.707031-.261718-3.5-.402343-5.386718-.402343-21.382813 0-38.714844 17.335937-38.714844 38.714843 0 21.382813 17.332031 38.71875 38.714844 38.71875 6.273437 0 11.570312-1.5 15.933594-4.148437 26.8125 73.214844 98.085937 125.574219 181.804687 125.574219 5.203125 0 10.355469-.210938 15.453125-.605469-99.464844-7.742187-177.726562-89.53125-177.726562-189.296875zm0 0" fill="#d6d6d6"/><path d="m328.285156 264.867188c-4.269531 0-7.726562-3.457032-7.726562-7.726563v-17.855469c0-4.265625 3.457031-7.726562 7.726562-7.726562 4.265625 0 7.726563 3.460937 7.726563 7.726562v17.855469c0 4.269531-3.460938 7.726563-7.726563 7.726563zm0 0" fill="#394048"/><path d="m340.441406 291.113281h-24.316406c-4.265625 0-7.726562-3.460937-7.726562-7.726562s3.460937-7.726563 7.726562-7.726563h24.316406c4.269532 0 7.726563 3.460938 7.726563 7.726563s-3.457031 7.726562-7.726563 7.726562zm0 0" fill="#e98e8f"/><path d="m144.625 264.867188c-4.265625 0-7.726562-3.457032-7.726562-7.726563v-17.855469c0-4.265625 3.460937-7.726562 7.726562-7.726562s7.726562 3.460937 7.726562 7.726562v17.855469c0 4.269531-3.460937 7.726563-7.726562 7.726563zm0 0" fill="#394048"/><path d="m156.785156 291.113281h-24.320312c-4.265625 0-7.726563-3.460937-7.726563-7.726562s3.460938-7.726563 7.726563-7.726563h24.320312c4.265625 0 7.726563 3.460938 7.726563 7.726563s-3.460938 7.726562-7.726563 7.726562zm0 0" fill="#e98e8f"/><path d="m236.453125 320.550781c-8.628906 0-16.734375-3.609375-22.238281-9.910156-2.808594-3.210937-2.484375-8.09375.730468-10.902344 3.214844-2.808593 8.09375-2.480469 10.902344.734375 2.570313 2.9375 6.4375 4.625 10.605469 4.625 4.171875 0 8.039063-1.6875 10.609375-4.625 2.808594-3.214844 7.6875-3.542968 10.902344-.734375 3.210937 2.808594 3.539062 7.691407.730468 10.902344-5.503906 6.296875-13.609374 9.910156-22.242187 9.910156zm0 0" fill="#394048"/><path d="m262.164062 257.777344c0 14.199218-11.511718 25.710937-25.710937 25.710937s-25.707031-11.511719-25.707031-25.710937c0-14.199219 11.507812-25.710938 25.707031-25.710938s25.710937 11.511719 25.710937 25.710938zm0 0" fill="#e16668"/><path d="m222.070312 435.980469s-58.683593 42.699219-58.683593-17.859375 58.683593-17.863282 58.683593-17.863282zm0 0" fill="#d05e60"/><path d="m250.839844 435.980469s58.683594 42.699219 58.683594-17.859375-58.683594-17.863282-58.683594-17.863282zm0 0" fill="#d05e60"/><path d="m239.832031 397.140625h-6.753906c-11.589844 0-20.980469 9.394531-20.980469 20.980469 0 11.585937 9.390625 20.976562 20.980469 20.976562h6.753906c11.585938 0 20.980469-9.390625 20.980469-20.976562 0-11.585938-9.394531-20.980469-20.980469-20.980469zm0 0" fill="#e16668"/><path d="m249.308594 474.957031c0 7.101563-5.753906 12.855469-12.855469 12.855469-7.097656 0-12.851563-5.753906-12.851563-12.855469 0-7.097656 5.753907-12.855469 12.851563-12.855469 7.101563 0 12.855469 5.757813 12.855469 12.855469zm0 0" fill="#e8e8e8"/></svg>